<svg xmlns="http://www.w3.org/2000/svg" width="32" height="32" viewBox="0 0 32 32"><defs><style>.cls-1{fill:#f2e6a7;}.cls-2{fill:#f2ecd8;}.cls-3{fill:#e8a7c2;}.cls-4{fill:#b4d9b9;}.cls-5{fill:#aedff2;}</style></defs><g id="favicon32"><path class="cls-1" d="M27,17.72q-1.11,6.95-2.21,13.9H8.14L5.83,17.72Z"/><rect class="cls-2" x="16.19" y="18.65" width="0.34" height="12.97"/><rect class="cls-2" x="14.51" y="18.65" width="0.34" height="12.97"/><polygon class="cls-2" points="25.46 18.53 24.23 31.62 23.89 31.62 25.12 18.5 25.46 18.53"/><polygon class="cls-2" points="23.61 18.52 22.68 31.62 22.34 31.62 23.28 18.49 23.61 18.52"/><rect class="cls-2" x="17.88" y="18.65" width="0.34" height="12.97"/><rect class="cls-2" x="19.65" y="18.65" width="0.34" height="12.97"/><rect class="cls-2" x="21.25" y="18.65" width="0.34" height="12.97"/><rect class="cls-2" x="12.65" y="18.65" width="0.34" height="12.97"/><rect class="cls-2" x="11.05" y="18.65" width="0.34" height="12.97"/><polygon class="cls-2" points="10.13 31.62 9.8 31.62 9.21 18.67 9.54 18.66 10.13 31.62"/><polygon class="cls-2" points="8.81 31.62 8.48 31.62 7.26 18.7 7.6 18.67 8.81 31.62"/><path class="cls-3" d="M26.81,14.48a2.27,2.27,0,0,0,.17-.86,2.21,2.21,0,0,0-2.19-2.22h-.3a1.93,1.93,0,0,0,0-.42,2.21,2.21,0,0,0-2.06-2.22,2,2,0,0,0,0-.43,2.2,2.2,0,0,0-2.19-2.21H20c-2.05-4-4.68-7.21-5.17-3.45a8.15,8.15,0,0,1-1.58,3.45H12.4a2.15,2.15,0,0,0-1.55.65,2.23,2.23,0,0,0-.64,1.56,2.12,2.12,0,0,0,0,.44,2.2,2.2,0,0,0-1.34.64A2.26,2.26,0,0,0,8.27,11a2.85,2.85,0,0,0,0,.42H8a2.18,2.18,0,0,0-1.55.65,2.23,2.23,0,0,0-.64,1.57,2.27,2.27,0,0,0,.17.86,2.15,2.15,0,0,0-1.47.65,2.23,2.23,0,0,0-.64,1.56,2.2,2.2,0,0,0,2.19,2.22H26.81a2.19,2.19,0,0,0,1.55-.65A2.24,2.24,0,0,0,29,16.69,2.2,2.2,0,0,0,26.81,14.48Zm-4.3-1.29h0Z"/><path class="cls-3" d="M22.51,13.2h0Z"/><path class="cls-3" d="M22.51,13.2h0Z"/><rect class="cls-4" x="11.73" y="7.57" width="1.01" height="0.17"/><polygon class="cls-5" points="19.07 7.28 19.91 7.67 19.98 7.51 19.14 7.12 19.07 7.28"/><polygon class="cls-5" points="15.8 3.84 15.22 4.57 15.35 4.68 15.93 3.95 15.8 3.84"/><polygon class="cls-5" points="22.18 10.38 21.86 11.26 22.02 11.32 22.34 10.44 22.18 10.38"/><polygon class="cls-5" points="16 10.47 16.84 10.87 16.91 10.71 16.07 10.32 16 10.47"/><rect class="cls-4" x="17.12" y="5.6" width="1.01" height="0.17"/><polygon class="cls-4" points="15.02 6.45 15.72 5.65 15.84 5.75 15.14 6.55 15.02 6.45"/><polygon class="cls-4" points="14.75 9.34 15.45 8.55 15.57 8.65 14.86 9.45 14.75 9.34"/><polygon class="cls-4" points="16.32 2.86 15.57 2.11 15.68 2 16.43 2.75 16.32 2.86"/><polygon class="cls-4" points="13.45 14.75 14.5 14.7 14.51 14.85 13.46 14.9 13.45 14.75"/><polygon class="cls-4" points="9.66 14.08 10.61 14.53 10.55 14.67 9.59 14.22 9.66 14.08"/><polygon class="cls-4" points="22.5 12.84 23.2 12.05 23.32 12.15 22.62 12.94 22.5 12.84"/><polygon class="cls-4" points="19.94 12.54 20.96 12.3 21 12.45 19.97 12.69 19.94 12.54"/><polygon class="cls-4" points="12.67 9.17 13.66 9.54 13.6 9.68 12.62 9.31 12.67 9.17"/><polygon class="cls-4" points="21.16 9.09 21.86 8.29 21.97 8.4 21.27 9.19 21.16 9.09"/><polygon class="cls-4" points="17.75 9.75 18.8 9.8 18.8 9.95 17.75 9.91 17.75 9.75"/><polygon class="cls-4" points="10 10.62 9.26 9.87 9.36 9.76 10.11 10.52 10 10.62"/><rect class="cls-4" x="15.3" y="11.91" width="1.07" height="0.15" transform="translate(27.82 -3.85) rotate(90)"/><polygon class="cls-4" points="7 14.04 7.7 13.24 7.81 13.34 7.11 14.14 7 14.04"/><polygon class="cls-4" points="11.38 11.99 12.08 11.19 12.2 11.3 11.49 12.09 11.38 11.99"/><polygon class="cls-5" points="14.35 12.32 13.81 13.08 13.94 13.18 14.49 12.42 14.35 12.32"/><polygon class="cls-5" points="19.45 11.07 18.83 11.77 18.96 11.88 19.57 11.18 19.45 11.07"/><polygon class="cls-5" points="17.41 12.23 17.63 13.14 17.79 13.1 17.58 12.19 17.41 12.23"/><polygon class="cls-5" points="19.77 8.99 19.98 9.9 20.15 9.86 19.94 8.95 19.77 8.99"/><polygon class="cls-5" points="11.69 13.17 11.89 14.08 12.06 14.04 11.85 13.13 11.69 13.17"/><polygon class="cls-5" points="24.66 13.17 24.87 14.08 25.04 14.04 24.82 13.13 24.66 13.17"/><polygon class="cls-5" points="20.7 13.87 19.84 14.2 19.89 14.36 20.76 14.03 20.7 13.87"/><polygon class="cls-5" points="14.04 6.68 14.26 7.6 14.42 7.56 14.21 6.64 14.04 6.68"/><polygon class="cls-5" points="10.13 12.03 9.21 12.11 9.23 12.28 10.15 12.2 10.13 12.03"/><polygon class="cls-5" points="11.52 9.24 11.73 10.16 11.89 10.12 11.68 9.21 11.52 9.24"/><polygon class="cls-5" points="13.54 11 13.41 11.92 13.57 11.95 13.71 11.02 13.54 11"/><polygon class="cls-5" points="16.57 14.21 17.37 14.68 17.45 14.53 16.65 14.06 16.57 14.21"/><polygon class="cls-5" points="16.82 7.71 17.04 8.62 17.2 8.58 16.99 7.67 16.82 7.71"/><polygon class="cls-5" points="17.9 4.24 17.03 3.91 16.97 4.07 17.84 4.39 17.9 4.24"/></g></svg>
