<svg xmlns="http://www.w3.org/2000/svg" width="588" height="570" viewBox="0 0 588 570"><defs><style>.cls-1{fill:#aedff2;}.cls-2{fill:#f2e6a7;}.cls-3{fill:#f2ecd8;}.cls-4{fill:#fff;}.cls-5{fill:#e8a7c2;}.cls-6{fill:#b4d9b9;}</style></defs><g id="logo_DONE"><ellipse class="cls-1" cx="54.5" cy="289.02" rx="11.5" ry="11.94"/><path class="cls-1" d="M298.64,53.06c-133.18,0-241.15,108-241.15,241.15s108,241.14,241.15,241.14,241.15-108,241.15-241.14S431.82,53.06,298.64,53.06ZM298.5,520C174,520,73,419,73,294.5S174,69,298.5,69,524,170,524,294.5,423,520,298.5,520Z"/><path class="cls-2" d="M420.18,294.77q-13.11,81.5-26.23,163H196.15q-13.74-81.49-27.47-163Z"/><rect class="cls-3" x="291.68" y="305.77" width="4" height="152"/><rect class="cls-3" x="271.68" y="305.77" width="4" height="152"/><polygon class="cls-3" points="401.64 304.33 387.1 457.77 383.09 457.77 397.66 303.96 401.64 304.33"/><polygon class="cls-3" points="379.77 304.13 368.66 457.77 364.65 457.77 375.78 303.85 379.77 304.13"/><rect class="cls-3" x="311.68" y="305.77" width="4" height="152"/><rect class="cls-3" x="332.68" y="305.77" width="4" height="152"/><rect class="cls-3" x="351.68" y="305.77" width="4" height="152"/><rect class="cls-3" x="249.68" y="305.77" width="4" height="152"/><rect class="cls-3" x="230.68" y="305.77" width="4" height="152"/><polygon class="cls-3" points="219.79 457.77 215.79 457.77 208.8 305.95 212.79 305.77 219.79 457.77"/><polygon class="cls-3" points="204.12 457.77 200.1 457.77 185.68 306.34 189.66 305.96 204.12 457.77"/><path class="cls-1" d="M508,413.77H90Q81.5,378.39,73,343l457,1Q519,378.89,508,413.77Z"/><path class="cls-4" d="M194.18,360.81a3.83,3.83,0,0,0,.66-1c.25-.53.54-.8.86-.8s.74.37.84,1.12l.89,7,.1.83a.61.61,0,0,1-.69.69,1,1,0,0,1-.73-.24,9.29,9.29,0,0,1-.87-1.57,11,11,0,0,0-3.6-4.08,8.64,8.64,0,0,0-5-1.8,6,6,0,0,0-4.1,1.41,4.46,4.46,0,0,0-1.64,3.55,4.1,4.1,0,0,0,1.52,3.08c1,.92,3,1.78,5.87,2.6,4.53,1.28,7.6,2.88,9.21,4.77a9.61,9.61,0,0,1,2.39,6.32,9.88,9.88,0,0,1-1.75,6,13.23,13.23,0,0,1-4.19,3.79,12.6,12.6,0,0,1-6.25,1.39,17,17,0,0,1-4.47-.63,24.65,24.65,0,0,1-4.77-1.86,4.88,4.88,0,0,0-.86,1.52c-.27.7-.61,1-1,1s-.68-.45-.76-1.37l-.74-9.22c0-.4-.05-.66-.05-.76,0-.49.26-.73.76-.73s.73.42,1.07,1.27a17.93,17.93,0,0,0,4.22,6.34,8.58,8.58,0,0,0,6.17,2.54,6.69,6.69,0,0,0,4.83-1.77,5.48,5.48,0,0,0,1.84-4,4.92,4.92,0,0,0-1.7-3.81,17.42,17.42,0,0,0-6.12-3,31.66,31.66,0,0,1-6.38-2.67,9.29,9.29,0,0,1-3.35-3.49,9,9,0,0,1-1.26-4.51,8.82,8.82,0,0,1,3.08-6.77q3.09-2.81,8.4-2.8A24.13,24.13,0,0,1,194.18,360.81Z"/><path class="cls-4" d="M211.09,371.37q.12,2.61.12,7.13c0,4.57,0,7.5.13,8.77a4.73,4.73,0,0,0,1,2.89,2.66,2.66,0,0,0,2,1,4.56,4.56,0,0,0,2.68-1,5.85,5.85,0,0,0,2-2.59,15.2,15.2,0,0,0,.65-5.23l.05-5.61a11.38,11.38,0,0,0-.24-2.95c-.16-.47-.71-.72-1.64-.76s-1.52-.31-1.52-.79a.5.5,0,0,1,.37-.54,8.8,8.8,0,0,1,1.94-.12q3.52,0,6.58-.17c.06.66.1,4.27.1,10.84q0,7.92.15,8.64c.1.49.65.77,1.65.85.59.07.89.32.89.74s-.34.74-1,.74l-.63,0c-.48,0-1,0-1.68,0-2.25,0-3.49,0-3.73,0l-.69,0c-.32,0-.52,0-.59-.16a2.25,2.25,0,0,1-.12-1,20.19,20.19,0,0,1,.18-2.67,13,13,0,0,1-3.69,3.2,8.4,8.4,0,0,1-4.08,1.07q-6.48,0-6.47-7.26V378.5a19.63,19.63,0,0,0-.3-4.76c-.19-.47-.7-.76-1.53-.88s-1.12-.32-1.12-.66.33-.68,1-.68Q210.33,371.52,211.09,371.37Z"/><path class="cls-4" d="M249.81,373.19q3-2.64,5.23-2.64a3.5,3.5,0,0,1,2.45.87,2.61,2.61,0,0,1,.95,2,2.57,2.57,0,0,1-.66,1.71,2.23,2.23,0,0,1-1.8.78,2.4,2.4,0,0,1-2.31-1.73c-.32-.76-.64-1.14-.94-1.14a4.49,4.49,0,0,0-2,1.22,7.73,7.73,0,0,1,1.35,4.36A7.6,7.6,0,0,1,250.7,383a7.77,7.77,0,0,1-3.32,2.83,18.7,18.7,0,0,1-5.52,1.17c-2.05.19-3.29.5-3.73.94a2.12,2.12,0,0,0-.69,1.52c0,.68.47,1.12,1.4,1.32a58.11,58.11,0,0,0,7.59.49q9.56.3,9.55,6.27a8.12,8.12,0,0,1-3.57,6.74q-3.57,2.69-10.78,2.68c-3.62,0-6.24-.53-7.84-1.59s-2.41-2.3-2.41-3.72a4.72,4.72,0,0,1,2-3.82,14.77,14.77,0,0,1,5.91-2.45,10,10,0,0,1-4.5-1.31,3.1,3.1,0,0,1-1.5-2.72,4,4,0,0,1,1.4-3.07,9.54,9.54,0,0,1,4.16-1.9,9.15,9.15,0,0,1-4.35-2.59,6.32,6.32,0,0,1-1.46-4.25,7.78,7.78,0,0,1,2.95-6.18,10.81,10.81,0,0,1,7.26-2.51,11,11,0,0,1,3.7.59A8.07,8.07,0,0,1,249.81,373.19ZM236.38,401a3.74,3.74,0,0,0,1.71,3,7.85,7.85,0,0,0,4.84,1.3,10.81,10.81,0,0,0,6.28-1.73,4.93,4.93,0,0,0,2.5-4.09,3,3,0,0,0-2-2.8,12.7,12.7,0,0,0-5.16-.9,10.55,10.55,0,0,0-6,1.48A4.37,4.37,0,0,0,236.38,401Zm2.71-22.46a9.7,9.7,0,0,0,1.11,5.08,3.13,3.13,0,0,0,2.63,1.79,2.52,2.52,0,0,0,2.36-1.54,10.54,10.54,0,0,0,.78-4.61,11.29,11.29,0,0,0-.95-5.12,2.8,2.8,0,0,0-2.45-1.86,2.87,2.87,0,0,0-2.5,1.68A9.14,9.14,0,0,0,239.09,378.51Z"/><path class="cls-4" d="M272.05,390.76a12.22,12.22,0,0,1-3.17,2.25,7.54,7.54,0,0,1-3.23.75,5.12,5.12,0,0,1-4-1.56,5.49,5.49,0,0,1-1.41-3.81,5.78,5.78,0,0,1,.85-3.09,6.35,6.35,0,0,1,2.11-2.11,25.08,25.08,0,0,1,4.14-1.79,21,21,0,0,0,3.25-1.36,4.13,4.13,0,0,0,1.39-1.45,4.86,4.86,0,0,0,.55-2.47,4,4,0,0,0-.83-2.66,2.83,2.83,0,0,0-2.3-1,2.26,2.26,0,0,0-1.8.63,5,5,0,0,0-.81,2.1c-.38,1.92-1.43,2.88-3.12,2.88a2.69,2.69,0,0,1-1.78-.61,2.15,2.15,0,0,1-.73-1.75,3.89,3.89,0,0,1,2.65-3.65,15.29,15.29,0,0,1,6.34-1.2,11.94,11.94,0,0,1,5.16,1,5,5,0,0,1,2.56,2.24,10.48,10.48,0,0,1,.55,4l-.05,6a35,35,0,0,0,.32,6.09c.21.9.66,1.35,1.36,1.35l.41,0,.68-.05c.69,0,1,.19,1,.58a.76.76,0,0,1-.43.65,10.86,10.86,0,0,1-2.6.67,21.7,21.7,0,0,1-3.93.41,3.28,3.28,0,0,1-2.39-.67A3.56,3.56,0,0,1,272.05,390.76Zm.33-10.18a10.53,10.53,0,0,1-2.92,2,9.87,9.87,0,0,0-2.82,2,4.06,4.06,0,0,0-.71,2.57,4.23,4.23,0,0,0,.75,2.71,2.28,2.28,0,0,0,1.84.93,3.7,3.7,0,0,0,2.74-1.36q1.28-1.36,1.27-4.8C272.53,383.87,272.48,382.53,272.38,380.58Z"/><path class="cls-4" d="M293,376a10.73,10.73,0,0,1,2.92-3.84,5.93,5.93,0,0,1,3.68-1.27,4.25,4.25,0,0,1,3.08,1.12,3.74,3.74,0,0,1,1.16,2.79A3.28,3.28,0,0,1,303,377a2.59,2.59,0,0,1-2,.93,2.3,2.3,0,0,1-1.48-.46,5.56,5.56,0,0,1-1.24-1.62c-.61-1.12-1.14-1.68-1.6-1.68-.63,0-1.34.63-2.13,1.9s-1.2,3.73-1.2,7.38c0,4.61.16,7.18.47,7.69s1,.78,2.07.78,1.4.25,1.4.76-.46.71-1.37.71c-.51,0-1.25-.05-2.21-.14s-1.71-.11-2.49-.11c-1.68,0-3.33.06-5,.17-.69.06-1.1.08-1.21.08-.72,0-1.07-.27-1.07-.8s.41-.71,1.24-.75a2.35,2.35,0,0,0,1.7-.57,3.53,3.53,0,0,0,.49-2.27l.1-6.34c0-1.28-.05-2.88-.15-4.79s-.2-3.05-.28-3.41a1.85,1.85,0,0,0-.65-1A2.55,2.55,0,0,0,285,373a3.92,3.92,0,0,1-1.16-.24.63.63,0,0,1-.24-.58c0-.45.43-.69,1.27-.71,1.56,0,4.21-.22,7.95-.61Z"/><path class="cls-4" d="M337.94,376.14a12.34,12.34,0,0,1,5.63,2.08q2.22,1.59,3.33,6.33c.71,2.95,1.47,4.9,2.26,5.84a4.51,4.51,0,0,0,3.35,1.54c.8.05,1.2.31,1.2.76s-.65.74-1.93.74l-9.78-.25c-1-1-1.71-2.83-2.08-5.45a38,38,0,0,0-1.47-7.06,5.39,5.39,0,0,0-2.29-2.95,6.78,6.78,0,0,0-3.53-.89c-.39,0-.92,0-1.6.07q0,8.94.07,11a4.81,4.81,0,0,0,.82,3,4,4,0,0,0,2.9,1c.76.05,1.14.31,1.14.76s-.33.69-1,.69l-7.8-.2c-1.05,0-2.39,0-4,.12s-2.47.13-2.87.13c-.7,0-1-.25-1-.74s.3-.71.91-.71a5,5,0,0,0,2.63-.71q1.2-.71,1.2-6l0-4.72,0-9.11c0-4.71-.2-7.58-.62-8.62s-1.53-1.58-3.34-1.62c-.71,0-1.06-.26-1.06-.73s.47-.74,1.42-.74q7.15,0,12.14-.3c1.47-.11,2.8-.16,4-.16,3.84,0,6.86.77,9,2.3A7.18,7.18,0,0,1,347.26,372a9.49,9.49,0,0,1-3.87,2.94A18.15,18.15,0,0,1,337.94,376.14ZM331,375.07l1,0a12.87,12.87,0,0,0,4.46-.83,5.46,5.46,0,0,0,3.17-2.64,8.37,8.37,0,0,0,.93-3.87,6.5,6.5,0,0,0-1.88-4.95,6.79,6.79,0,0,0-4.85-1.78,10.06,10.06,0,0,0-2.82.46Z"/><path class="cls-4" d="M363.25,371.37q.13,2.61.13,7.13c0,4.57,0,7.5.13,8.77a4.67,4.67,0,0,0,1,2.89,2.64,2.64,0,0,0,2,1,4.54,4.54,0,0,0,2.68-1,5.8,5.8,0,0,0,2-2.59,15.2,15.2,0,0,0,.65-5.23l.05-5.61a11.38,11.38,0,0,0-.24-2.95c-.17-.47-.71-.72-1.64-.76s-1.53-.31-1.53-.79a.51.51,0,0,1,.37-.54,8.93,8.93,0,0,1,1.94-.12q3.54,0,6.58-.17.11,1,.1,10.84,0,7.92.16,8.64c.1.49.65.77,1.65.85.59.07.88.32.88.74s-.33.74-1,.74l-.64,0c-.47,0-1,0-1.67,0-2.25,0-3.5,0-3.73,0l-.69,0c-.32,0-.52,0-.6-.16a2.5,2.5,0,0,1-.11-1,20.19,20.19,0,0,1,.18-2.67,12.9,12.9,0,0,1-3.7,3.2,8.34,8.34,0,0,1-4.07,1.07q-6.48,0-6.48-7.26V378.5a20.49,20.49,0,0,0-.29-4.76c-.19-.47-.71-.76-1.54-.88s-1.11-.32-1.11-.66.33-.68,1-.68C360.22,371.52,362.75,371.47,363.25,371.37Z"/><path class="cls-4" d="M401.24,386.09a7.34,7.34,0,0,1-.95,3.56,7.62,7.62,0,0,1-2.87,2.85,8.62,8.62,0,0,1-4.48,1.13,10.35,10.35,0,0,1-5.41-1.32,3.81,3.81,0,0,0-1.25-.56c-.22,0-.39.15-.5.43-.28.66-.6,1-1,1a.49.49,0,0,1-.47-.26,9.93,9.93,0,0,1-.23-2.26q-.09-2-.09-4.77c0-.71.21-1.07.61-1.07s.84.53,1.3,1.58q2.43,5.72,6.65,5.71a4.06,4.06,0,0,0,2.5-.76,2.58,2.58,0,0,0,1-2.21,2.79,2.79,0,0,0-.95-2.1,17.13,17.13,0,0,0-3.65-2.19,22.38,22.38,0,0,1-5.56-3.51,5.33,5.33,0,0,1-1.52-4,5.72,5.72,0,0,1,2.21-4.66,8.36,8.36,0,0,1,5.43-1.79,10.43,10.43,0,0,1,5.21,1.52,1.21,1.21,0,0,0,.58.21c.22,0,.39-.19.51-.56s.41-.71.74-.71a.46.46,0,0,1,.45.22,12.52,12.52,0,0,1,.36,2.38,35.55,35.55,0,0,1,.23,3.57c0,.66-.2,1-.59,1s-.82-.48-1.24-1.43c-1.44-3.14-3.51-4.72-6.22-4.72a3.71,3.71,0,0,0-2.39.74,2,2,0,0,0-.91,1.57,2.51,2.51,0,0,0,1.16,2,25.85,25.85,0,0,0,4.55,2.46,36.64,36.64,0,0,1,4,2,5.9,5.9,0,0,1,1.92,2.09A5.52,5.52,0,0,1,401.24,386.09Z"/><path class="cls-4" d="M414.14,358.54c-.07,1.7-.1,3.15-.1,4.37l0,6.78c0,2.91,0,4.7.08,5.36a10.52,10.52,0,0,1,3.34-3.09,8.18,8.18,0,0,1,4-1,7.24,7.24,0,0,1,3.37.83,5.56,5.56,0,0,1,2.48,2.75q.87,1.92.87,6.69l-.07,8c0,1.74.68,2.68,2.05,2.82.55.05.82.28.82.68s-.29.74-.87.74c-.15,0-.38,0-.68-.05a49.63,49.63,0,0,0-5.26-.2c-.39,0-1.09.05-2.11.15-.71.07-1.32.1-1.85.1-.69,0-1-.23-1-.68s.39-.65,1.17-.77a1.76,1.76,0,0,0,1.5-1.45,47.93,47.93,0,0,0,.33-7.7c0-3.92-.2-6.47-.6-7.68a2.37,2.37,0,0,0-2.43-1.8,4.22,4.22,0,0,0-3,1.53,7.85,7.85,0,0,0-1.93,4.27,41.37,41.37,0,0,0-.46,6.75,26.91,26.91,0,0,0,.21,3.59,3.75,3.75,0,0,0,.57,1.91,2.18,2.18,0,0,0,1.25.51c.65.07,1,.34,1,.81s-.37.66-1.09.66c-.55,0-1.33-.05-2.36-.14-.85-.08-1.6-.11-2.26-.11a31.17,31.17,0,0,0-3.74.2,19.61,19.61,0,0,1-2.26.1.64.64,0,0,1-.73-.71c0-.39.34-.64,1-.74a2.15,2.15,0,0,0,1.79-1.08q.5-.91.67-6.69t.18-17.62a12.43,12.43,0,0,0-.56-4.71,3.08,3.08,0,0,0-1.88-1.51c-.85-.27-1.27-.58-1.27-.94s.36-.68,1.09-.68Q409.34,358.75,414.14,358.54Z"/><path class="cls-5" d="M417.69,256.77a26,26,0,0,0-24-36h-3.49a26,26,0,0,0-24-31,26,26,0,0,0-25.51-31H337c-24.3-46.86-55.5-84.43-61.27-40.37-1.68,12.88-8.94,26.58-18.86,40.37H246.68a26,26,0,0,0-26,26,25.4,25.4,0,0,0,.51,5.12,26,26,0,0,0-23,30.88h-3.49a26,26,0,0,0-24,36,26,26,0,0,0,1,52h246a26,26,0,0,0,0-52Zm-51-15.08a.22.22,0,0,1,0,.08h-2C365.35,241.77,366,241.74,366.67,241.69Z"/><path class="cls-5" d="M366.68,241.77h-2c.67,0,1.33,0,2-.08A.22.22,0,0,1,366.68,241.77Z"/><path class="cls-5" d="M366.68,241.77h-2c.67,0,1.33,0,2-.08A.22.22,0,0,1,366.68,241.77Z"/><rect class="cls-6" x="238.68" y="175.77" width="12" height="2"/><rect class="cls-1" x="325.68" y="172.77" width="11" height="2" transform="translate(103.74 -123.13) rotate(24.86)"/><rect class="cls-1" x="278.85" y="136.03" width="11" height="2" transform="translate(569.85 2.39) rotate(129.02)"/><rect class="cls-1" x="356.28" y="213.26" width="11" height="2" transform="translate(688.74 -50.1) rotate(110.41)"/><rect class="cls-1" x="289.28" y="210.26" width="11" height="2" transform="translate(116.13 -104.35) rotate(24.86)"/><rect class="cls-6" x="302.68" y="152.77" width="12" height="2"/><rect class="cls-6" x="276.4" y="157.67" width="12.49" height="1.8" transform="translate(589.27 53.63) rotate(131.81)"/><rect class="cls-6" x="273.16" y="191.66" width="12.49" height="1.8" transform="translate(609.2 112.69) rotate(131.81)"/><rect class="cls-6" x="283.16" y="114.66" width="12.49" height="1.8" transform="translate(166.48 -170.79) rotate(45)"/><rect class="cls-6" x="259.16" y="259.66" width="12.49" height="1.8" transform="translate(542.51 508.64) rotate(177.36)"/><rect class="cls-6" x="213.16" y="254.66" width="12.49" height="1.8" transform="translate(311.03 579.68) rotate(-155.14)"/><rect class="cls-6" x="365.16" y="232.66" width="12.49" height="1.8" transform="translate(793.1 112.45) rotate(131.81)"/><rect class="cls-6" x="336.16" y="232.66" width="12.49" height="1.8" transform="translate(728.9 383.28) rotate(166.88)"/><rect class="cls-6" x="249.16" y="196.66" width="12.49" height="1.8" transform="translate(425.89 471.78) rotate(-159.59)"/><rect class="cls-6" x="349.16" y="188.66" width="12.49" height="1.8" transform="translate(733.64 51.05) rotate(131.81)"/><rect class="cls-6" x="310.16" y="201.66" width="12.49" height="1.8" transform="translate(624.2 417.98) rotate(-177.64)"/><rect class="cls-6" x="208.16" y="205.66" width="12.49" height="1.8" transform="translate(208.86 -91.11) rotate(45)"/><rect class="cls-6" x="281.16" y="226.66" width="12.49" height="1.8" transform="translate(514.97 -59.84) rotate(90)"/><rect class="cls-6" x="181.16" y="246.66" width="12.49" height="1.8" transform="translate(496.86 272.93) rotate(131.81)"/><rect class="cls-6" x="233.16" y="222.66" width="12.49" height="1.8" transform="translate(565.64 194.17) rotate(131.81)"/><rect class="cls-1" x="261.9" y="235.56" width="11" height="2" transform="translate(616.06 159.73) rotate(126.07)"/><rect class="cls-1" x="321.9" y="220.56" width="11" height="2" transform="translate(710.82 125.25) rotate(131.81)"/><rect class="cls-1" x="302.9" y="234.56" width="11" height="2" transform="translate(467.79 -118.27) rotate(76.88)"/><rect class="cls-1" x="330.9" y="196.56" width="11" height="2" transform="translate(452.42 -174.91) rotate(76.88)"/><rect class="cls-1" x="234.9" y="245.56" width="11" height="2" transform="translate(425.94 -43.55) rotate(76.88)"/><rect class="cls-1" x="388.9" y="245.56" width="11" height="2" transform="translate(544.97 -193.52) rotate(76.88)"/><rect class="cls-1" x="334.9" y="251.56" width="11" height="2" transform="matrix(-0.94, 0.35, -0.35, -0.94, 747.98, 368.94)"/><rect class="cls-1" x="262.9" y="169.56" width="11" height="2" transform="translate(373.57 -129.56) rotate(76.88)"/><rect class="cls-1" x="208.9" y="228.56" width="11" height="2" transform="translate(449.6 437.77) rotate(174.56)"/><rect class="cls-1" x="232.9" y="199.56" width="11" height="2" transform="translate(379.6 -77.15) rotate(76.88)"/><rect class="cls-1" x="254.9" y="220.56" width="11" height="2" transform="translate(516.97 -4.43) rotate(98.23)"/><rect class="cls-1" x="295.9" y="254.56" width="11" height="2" transform="translate(168.16 -116.46) rotate(30)"/><rect class="cls-1" x="295.9" y="181.56" width="11" height="2" transform="translate(410.76 -152.42) rotate(76.88)"/><rect class="cls-1" x="300.96" y="134.75" width="11" height="2" transform="translate(546.34 369.84) rotate(-159.59)"/><path class="cls-4" d="M158.36,373a13.44,13.44,0,0,1-2.31,6.12,82.75,82.75,0,0,1-15.21,17.27A72.76,72.76,0,0,1,125.59,379a13.93,13.93,0,0,1-2.28-6.07c-.31-5.11,4.15-9.27,9.27-9.27a9.28,9.28,0,0,1,8.26,5.05,9.25,9.25,0,0,1,8.26-5.05C154.22,363.69,158.73,367.85,158.36,373Z"/><path class="cls-4" d="M473.52,373.21a13.42,13.42,0,0,1-2.32,6.12A82.51,82.51,0,0,1,456,396.61a73.17,73.17,0,0,1-15.25-17.32,13.81,13.81,0,0,1-2.27-6.08c-.32-5.11,4.15-9.27,9.26-9.27A9.26,9.26,0,0,1,456,369a9.29,9.29,0,0,1,8.26-5.06C469.37,363.94,473.88,368.1,473.52,373.21Z"/><circle class="cls-1" cx="58" cy="265" r="13"/><circle class="cls-1" cx="64" cy="239" r="14"/><circle class="cls-1" cx="73" cy="212" r="14"/><circle class="cls-1" cx="83" cy="186" r="14"/><circle class="cls-1" cx="97" cy="162" r="14"/><circle class="cls-1" cx="114" cy="140" r="14"/><circle class="cls-1" cx="133" cy="120" r="14"/><circle class="cls-1" cx="154" cy="102" r="14"/><circle class="cls-1" cx="177" cy="86" r="14"/><circle class="cls-1" cx="202" cy="74" r="14"/><circle class="cls-1" cx="228" cy="64" r="14"/><circle class="cls-1" cx="255" cy="57" r="14"/><circle class="cls-1" cx="283" cy="55" r="14"/><circle class="cls-1" cx="311" cy="54" r="14"/><circle class="cls-1" cx="338" cy="57" r="14"/><circle class="cls-1" cx="365" cy="64" r="14"/><circle class="cls-1" cx="391" cy="73" r="14"/><circle class="cls-1" cx="416" cy="85" r="14"/><circle class="cls-1" cx="440" cy="99" r="14"/><circle class="cls-1" cx="461" cy="117" r="14"/><circle class="cls-1" cx="480" cy="137" r="14"/><circle class="cls-1" cx="497" cy="159" r="14"/><circle class="cls-1" cx="511" cy="183" r="14"/><circle class="cls-1" cx="523" cy="208" r="14"/><circle class="cls-1" cx="532" cy="234" r="14"/><circle class="cls-1" cx="537" cy="261" r="14"/><circle class="cls-1" cx="538" cy="288" r="14"/><circle class="cls-1" cx="538" cy="316" r="14"/><circle class="cls-1" cx="534" cy="343" r="14"/><circle class="cls-1" cx="527" cy="370" r="14"/><circle class="cls-1" cx="517" cy="396" r="14"/><circle class="cls-1" cx="503" cy="420" r="14"/><circle class="cls-1" cx="488" cy="443" r="14"/><circle class="cls-1" cx="470" cy="464" r="14"/><circle class="cls-1" cx="449" cy="482" r="14"/><circle class="cls-1" cx="427" cy="499" r="14"/><circle class="cls-1" cx="402" cy="511" r="14"/><circle class="cls-1" cx="377" cy="522" r="14"/><circle class="cls-1" cx="350" cy="529" r="14"/><circle class="cls-1" cx="323" cy="534" r="14"/><circle class="cls-1" cx="295" cy="535" r="14"/><circle class="cls-1" cx="267" cy="534" r="14"/><circle class="cls-1" cx="240" cy="528" r="14"/><circle class="cls-1" cx="214" cy="519" r="14"/><circle class="cls-1" cx="188" cy="509" r="14"/><circle class="cls-1" cx="164" cy="495" r="14"/><circle class="cls-1" cx="142" cy="478" r="14"/><circle class="cls-1" cx="122" cy="459" r="14"/><circle class="cls-1" cx="104" cy="438" r="14"/><circle class="cls-1" cx="89" cy="415" r="14"/><circle class="cls-1" cx="77" cy="390" r="14"/><circle class="cls-1" cx="67" cy="364" r="14"/><ellipse class="cls-1" cx="60" cy="338.5" rx="14" ry="13.5"/><ellipse class="cls-1" cx="56.5" cy="313" rx="12.5" ry="13"/></g></svg>
