<svg id="favicon16" xmlns="http://www.w3.org/2000/svg" width="16" height="16" viewBox="0 0 16 16"><defs><style>.cls-1{fill:#f2e6a7;}.cls-2{fill:#f2ecd8;}.cls-3{fill:#e8a7c2;}.cls-4{fill:#b4d9b9;}.cls-5{fill:#aedff2;}</style></defs><path class="cls-1" d="M13.1,8.53q-.51,3.14-1,6.27H4.49c-.35-2.09-.71-4.18-1.06-6.27Z"/><rect class="cls-2" x="8.16" y="8.95" width="0.15" height="5.84"/><rect class="cls-2" x="7.39" y="8.95" width="0.15" height="5.84"/><polygon class="cls-2" points="12.38 8.9 11.83 14.79 11.67 14.79 12.23 8.88 12.38 8.9"/><polygon class="cls-2" points="11.54 8.89 11.12 14.79 10.96 14.79 11.39 8.88 11.54 8.89"/><rect class="cls-2" x="8.93" y="8.95" width="0.15" height="5.84"/><rect class="cls-2" x="9.73" y="8.95" width="0.15" height="5.84"/><rect class="cls-2" x="10.46" y="8.95" width="0.15" height="5.84"/><rect class="cls-2" x="6.54" y="8.95" width="0.15" height="5.84"/><rect class="cls-2" x="5.81" y="8.95" width="0.15" height="5.84"/><rect class="cls-2" x="5.11" y="8.95" width="0.15" height="5.84"/><polygon class="cls-2" points="4.79 14.79 4.64 14.79 4.08 8.98 4.24 8.96 4.79 14.79"/><path class="cls-3" d="M13,7.07a1,1,0,0,0-.92-1.38h-.14a.62.62,0,0,0,0-.19,1,1,0,0,0-.94-1,1.36,1.36,0,0,0,0-.2,1,1,0,0,0-1-1H9.9C9,1.5,7.77.06,7.54,1.75A3.54,3.54,0,0,1,6.82,3.3H6.43a1,1,0,0,0-.71.3,1,1,0,0,0-.29.7,1.23,1.23,0,0,0,0,.2,1,1,0,0,0-.61.29,1,1,0,0,0-.29.71,1.21,1.21,0,0,0,0,.19H4.43A1,1,0,0,0,3.72,6a1,1,0,0,0-.21,1.09,1,1,0,0,0-.67.29,1,1,0,0,0,.71,1.71H13a1,1,0,0,0,0-2Zm-2-.58Z"/><path class="cls-3" d="M11,6.49h0Z"/><path class="cls-3" d="M11,6.49h0Z"/><rect class="cls-4" x="6.12" y="3.96" width="0.46" height="0.08"/><rect class="cls-5" x="9.47" y="3.84" width="0.42" height="0.08" transform="translate(2.53 -3.71) rotate(24.86)"/><rect class="cls-5" x="7.67" y="2.43" width="0.42" height="0.08" transform="translate(14.75 -2.1) rotate(129.02)"/><rect class="cls-5" x="10.64" y="5.4" width="0.42" height="0.08" transform="translate(19.73 -2.84) rotate(110.41)"/><rect class="cls-5" x="8.07" y="5.28" width="0.42" height="0.08" transform="translate(3 -2.99) rotate(24.86)"/><rect class="cls-4" x="8.58" y="3.07" width="0.46" height="0.08"/><rect class="cls-4" x="7.57" y="3.26" width="0.48" height="0.07" transform="translate(15.48 -0.33) rotate(131.81)"/><rect class="cls-4" x="7.45" y="4.57" width="0.48" height="0.07" transform="translate(16.24 1.94) rotate(131.81)"/><rect class="cls-4" x="7.83" y="1.61" width="0.48" height="0.07" transform="translate(3.53 -5.23) rotate(45)"/><rect class="cls-4" x="6.91" y="7.18" width="0.48" height="0.07" transform="translate(14.62 14.1) rotate(177.36)"/><rect class="cls-4" x="5.14" y="6.99" width="0.48" height="0.07" transform="translate(7.31 15.66) rotate(-155.14)"/><rect class="cls-4" x="10.98" y="6.14" width="0.48" height="0.07" transform="translate(23.31 1.93) rotate(131.81)"/><rect class="cls-4" x="9.87" y="6.14" width="0.48" height="0.07" transform="translate(21.35 9.9) rotate(166.88)"/><rect class="cls-4" x="6.52" y="4.76" width="0.48" height="0.07" transform="translate(11.43 11.65) rotate(-159.59)"/><rect class="cls-4" x="10.37" y="4.45" width="0.48" height="0.07" transform="translate(21.02 -0.43) rotate(131.81)"/><rect class="cls-4" x="8.87" y="4.95" width="0.48" height="0.07" transform="translate(18 10.35) rotate(-177.64)"/><rect class="cls-4" x="4.95" y="5.11" width="0.48" height="0.07" transform="translate(5.16 -2.16) rotate(45)"/><rect class="cls-4" x="7.75" y="5.91" width="0.48" height="0.07" transform="translate(13.94 -2.05) rotate(90)"/><rect class="cls-4" x="3.91" y="6.68" width="0.48" height="0.07" transform="translate(11.93 8.1) rotate(131.81)"/><rect class="cls-4" x="5.91" y="5.76" width="0.48" height="0.07" transform="translate(14.57 5.07) rotate(131.81)"/><rect class="cls-5" x="7.01" y="6.26" width="0.42" height="0.08" transform="translate(16.57 4.16) rotate(126.07)"/><rect class="cls-5" x="9.32" y="5.68" width="0.42" height="0.08" transform="translate(20.15 2.43) rotate(131.81)"/><rect class="cls-5" x="8.59" y="6.22" width="0.42" height="0.08" transform="translate(12.9 -3.74) rotate(76.88)"/><rect class="cls-5" x="9.67" y="4.76" width="0.42" height="0.08" transform="translate(12.31 -5.91) rotate(76.88)"/><rect class="cls-5" x="5.98" y="6.64" width="0.42" height="0.08" transform="translate(11.29 -0.86) rotate(76.88)"/><rect class="cls-5" x="11.9" y="6.64" width="0.42" height="0.08" transform="translate(15.86 -6.63) rotate(76.88)"/><rect class="cls-5" x="9.82" y="6.87" width="0.42" height="0.08" transform="translate(21.85 9.84) rotate(159.36)"/><rect class="cls-5" x="7.05" y="3.72" width="0.42" height="0.08" transform="translate(9.27 -4.17) rotate(76.88)"/><rect class="cls-5" x="4.98" y="5.99" width="0.42" height="0.08" transform="translate(10.93 11.53) rotate(174.56)"/><rect class="cls-5" x="5.9" y="4.87" width="0.42" height="0.08" transform="translate(9.51 -2.16) rotate(76.88)"/><rect class="cls-5" x="6.75" y="5.68" width="0.42" height="0.08" transform="translate(13.61 -0.35) rotate(98.23)"/><rect class="cls-5" x="8.32" y="6.99" width="0.42" height="0.08" transform="translate(4.66 -3.33) rotate(30)"/><rect class="cls-5" x="8.32" y="4.18" width="0.42" height="0.08" transform="translate(10.7 -5.05) rotate(76.88)"/><rect class="cls-5" x="8.52" y="2.38" width="0.42" height="0.08" transform="translate(16.06 7.73) rotate(-159.59)"/></svg>
